<svg id="Layer_1" data-name="Layer 1" xmlns="http://www.w3.org/2000/svg" xmlns:xlink="http://www.w3.org/1999/xlink" viewBox="0 0 80 80"><defs><style>.cls-1{fill:none;stroke-linecap:round;stroke-linejoin:round;stroke-width:2.25px;stroke:url(#linear-gradient);}</style><linearGradient id="linear-gradient" x1="12.5" y1="16.09" x2="65.49" y2="69.08" gradientUnits="userSpaceOnUse"><stop offset="0" stop-color="#2d72b9"/><stop offset="1" stop-color="#2cbcb1"/></linearGradient></defs><title>Refrigeration</title><path class="cls-1" d="M30.73,6.86V47.29M23.63,8.94,30.73,16l7.1-7.09m0,36.28-7.1-7.1-7.1,7.1M13.22,17l35,20.21m-36.76-13,9.69-2.59-2.6-9.7M50,30l-9.69,2.6,2.6,9.69M13.21,37.17,48.22,17M18.55,42.28l2.6-9.69L11.46,30M42.89,11.87l-2.6,9.69L50,24.16M23.47,50.41V70.16H62.81V23.3h-8.1m-24,40.64h24m-24-5.34h24m-24-5.35h24"/></svg>