<svg id="Layer_1" data-name="Layer 1" xmlns="http://www.w3.org/2000/svg" xmlns:xlink="http://www.w3.org/1999/xlink" viewBox="0 0 80 80"><defs><style>.cls-1{fill:none;stroke-linecap:round;stroke-linejoin:round;stroke-width:2.25px;stroke:url(#linear-gradient);}</style><linearGradient id="linear-gradient" x1="11.11" y1="11.11" x2="68.89" y2="68.89" gradientUnits="userSpaceOnUse"><stop offset="0" stop-color="#2d72b9"/><stop offset="1" stop-color="#2cbcb1"/></linearGradient></defs><title>Refrigeration</title><path class="cls-1" d="M38.17,48.62A12.85,12.85,0,1,1,25.32,35.77,12.85,12.85,0,0,1,38.17,48.62ZM25.32,46.33a2.29,2.29,0,1,0,2.29,2.29A2.29,2.29,0,0,0,25.32,46.33Zm3.79-.84a6.47,6.47,0,0,0,.81-5.67m-5.41,4A6.49,6.49,0,0,0,20,40.23m.72,6.67A6.48,6.48,0,0,0,15.4,49m6.14,2.71a6.45,6.45,0,0,0-.82,5.68m5.42-4A6.46,6.46,0,0,0,30.64,57m-.72-6.67a6.42,6.42,0,0,0,5.32-2.13M54.68,35.77A12.85,12.85,0,1,0,67.53,48.62,12.85,12.85,0,0,0,54.68,35.77Zm0,10.56A2.29,2.29,0,1,0,57,48.62,2.29,2.29,0,0,0,54.68,46.33Zm3.78-.84a6.43,6.43,0,0,0,.82-5.67m-5.42,4a6.45,6.45,0,0,0-4.5-3.55m.72,6.67A6.48,6.48,0,0,0,44.76,49m6.13,2.71a6.49,6.49,0,0,0-.81,5.68m5.41-4A6.5,6.5,0,0,0,60,57m-.72-6.67A6.42,6.42,0,0,0,64.6,48.2M71.14,15H8.86V65H71.14Zm-8.31,3.59h0a1.78,1.78,0,0,1-1.78,1.78H17.18a1.79,1.79,0,0,0-1.78,1.79h0a1.78,1.78,0,0,0,1.78,1.78H61.05a1.79,1.79,0,0,1,1.78,1.79h0a1.78,1.78,0,0,1-1.78,1.78H17.18a1.79,1.79,0,0,0-1.78,1.79h0A1.78,1.78,0,0,0,17.18,31H61.05"/></svg>