<svg id="Layer_1" data-name="Layer 1" xmlns="http://www.w3.org/2000/svg" xmlns:xlink="http://www.w3.org/1999/xlink" viewBox="0 0 80 80"><defs><style>.cls-1{fill:none;stroke-linecap:round;stroke-linejoin:round;stroke-width:2.25px;stroke:url(#linear-gradient);}</style><linearGradient id="linear-gradient" x1="16.75" y1="20.85" x2="65.62" y2="69.73" gradientUnits="userSpaceOnUse"><stop offset="0" stop-color="#2d72b9"/><stop offset="1" stop-color="#2cbcb1"/></linearGradient></defs><title>Refrigeration</title><path class="cls-1" d="M60.81,32.2h3.93l9.32,1.18v12.2L59,47.49H27.65l-15.09-4v-8l15.09-4H47.44m-5.88-.35V26.2H19.07v7.56m41.74-11H48v15.3H60.81Zm-30.5-1.1V26M28.1,21.68h4.25m5.92,0V26m-2.21-4.35h4.25M75.44,54.82h-66v3.5h66ZM20.94,42.57V54.82m3.28-8.37v8.24m36-7.33v7.33m3.24-10.91v11M12.56,36.21H8V42h4.61ZM8,34.63H4.56v8.13H8Zm23.61,9.15,4.5,6.79H54.4V42.76M27.65,47.49v-16"/></svg>