<svg id="Layer_1" data-name="Layer 1" xmlns="http://www.w3.org/2000/svg" xmlns:xlink="http://www.w3.org/1999/xlink" viewBox="0 0 80 80"><defs><style>.cls-1{fill:none;stroke-linecap:round;stroke-linejoin:round;stroke-width:2.25px;stroke:url(#linear-gradient);}</style><linearGradient id="linear-gradient" x1="16.52" y1="19.85" x2="59.71" y2="63.03" gradientUnits="userSpaceOnUse"><stop offset="0" stop-color="#2d72b9"/><stop offset="1" stop-color="#2cbcb1"/></linearGradient></defs><title>Refrigeration</title><path class="cls-1" d="M40.1,31.49H61.5A11.67,11.67,0,0,1,73.17,43.15h0A11.67,11.67,0,0,1,61.5,54.82h-43A11.67,11.67,0,0,1,6.83,43.15h0A11.67,11.67,0,0,1,18.5,31.49h2.94M40.1,19.65H21.44V44.49H40.1Zm-4,16.5V23.65H25.44v12.5Zm13.13,24.2H60m-2.65-5.5h-5.5v5.5h5.5Zm-38.53,5.5h10.8M27,54.85H21.5v5.5H27ZM58.73,31.49V25.24H56.42m-15.07,0h6.13m3.88-4.64a3.88,3.88,0,1,0,3.88,3.88A3.88,3.88,0,0,0,51.36,20.6ZM21.44,22.74H15.23v4.62h6.21Z"/></svg>