<svg id="Layer_1" data-name="Layer 1" xmlns="http://www.w3.org/2000/svg" xmlns:xlink="http://www.w3.org/1999/xlink" viewBox="0 0 80 80"><defs><style>.cls-1{fill:none;stroke-linecap:round;stroke-linejoin:round;stroke-width:2.25px;stroke:url(#linear-gradient);}</style><linearGradient id="linear-gradient" x1="19.32" y1="20.68" x2="64.87" y2="66.24" gradientUnits="userSpaceOnUse"><stop offset="0" stop-color="#2d72b9"/><stop offset="1" stop-color="#2cbcb1"/></linearGradient></defs><title>Refrigeration</title><path class="cls-1" d="M11.72,36.33H23.2V51.27H11.72m-.69-16H6.31V52.33H11Zm32.73-2.73H41.91L29.83,26.3V59.93l12.08-6.24H67.32V32.54H62.41M53.2,19.86a9.44,9.44,0,1,0,9.44,9.44A9.43,9.43,0,0,0,53.2,19.86ZM37.28,57v3.12h4.18m18.31,0h4.34V53.9M29.73,26.3,23.2,29V57.23l6.53,2.7Zm44,4.1H67.32V55.84h6.37ZM53.2,22.91h0m4.52,1.87h0m1.87,4.52h0m-1.87,4.52h0M53.2,35.69h0m-4.52-1.87h0M46.81,29.3h0m1.87-4.52h0m13.26,8.09M58.39,45.7H45.93l-4,7.81h20.5Z"/></svg>