<svg id="Layer_1" data-name="Layer 1" xmlns="http://www.w3.org/2000/svg" xmlns:xlink="http://www.w3.org/1999/xlink" viewBox="0 0 80 80"><defs><style>.cls-1{fill:none;stroke-linecap:round;stroke-linejoin:round;stroke-width:2.25px;stroke:url(#linear-gradient);}</style><linearGradient id="linear-gradient" x1="12.62" y1="12.62" x2="67.38" y2="67.38" gradientUnits="userSpaceOnUse"><stop offset="0" stop-color="#2d72b9"/><stop offset="1" stop-color="#2cbcb1"/></linearGradient></defs><title>Refrigeration</title><path class="cls-1" d="M66,67.17H14V12.83H66ZM62,51.11V16.83H18V51.11Zm-4-4V20.83H22V47.11Zm-11-22.41H43.21v3.84h3.84Zm7,0H50.18v3.84H54Zm-7,6.75H43.21v3.84h3.84Zm7,0H50.18v3.84H54Zm-7,6.75H43.21V42h3.84Zm7,0H50.18V42H54Zm5.53,18.37H55V61.1h4.53ZM26.64,42h7.21M26.64,38.2h7.21m.29-13.5h-7.5v7.5h7.5Z"/></svg>