<svg id="Layer_1" data-name="Layer 1" xmlns="http://www.w3.org/2000/svg" xmlns:xlink="http://www.w3.org/1999/xlink" viewBox="0 0 80 80"><defs><style>.cls-1{fill:none;stroke-linecap:round;stroke-linejoin:round;stroke-width:2.25px;stroke:url(#linear-gradient);}</style><linearGradient id="linear-gradient" x1="20.24" y1="10.31" x2="65.5" y2="55.56" gradientUnits="userSpaceOnUse"><stop offset="0" stop-color="#2d72b9"/><stop offset="1" stop-color="#2cbcb1"/></linearGradient></defs><title>Refrigeration</title><path class="cls-1" d="M63.29,8.05V26.54a9.92,9.92,0,0,1,.52,18.16v-7l-4.25-2-4.25,2v7a9.92,9.92,0,0,1,.51-18.16V8.05M27.35,42.11l-3.23-.58-2.58,3.65-3.46-1.85,1.61-4.17-2.27-2.37-4.24,1.44-1.7-3.53,3.75-2.43L14.78,29l-4.27-1.33.69-3.85,4.47.23,1.55-2.89L14.54,17.6l2.83-2.71,3.47,2.81s.89-.5,1.45-.77,1.51-.66,1.51-.66l-.06-4.47,3.88-.53,1.15,4.32,3.23.58,2.58-3.66L38,14.36l-1.61,4.18L38.7,20.9l4.24-1.43L44.64,23l-3.75,2.43.45,3.25L45.61,30l-.69,3.85-4.47-.24-1.55,2.9,2.68,3.58-2.83,2.71L35.28,40s-.89.5-1.45.77-1.51.66-1.51.66l.06,4.47-3.88.53Zm4.37-5.7a8.4,8.4,0,1,0-11.23-3.9A8.41,8.41,0,0,0,31.72,36.41ZM38.32,68l-2.19-1.23-2.77,2-2-2.2,2.2-2.6-1.05-2.28-3.41,0-.35-3L32,57.83l.49-2.46-2.75-2,1.47-2.61L34.41,52l1.84-1.7-1-3.25,2.71-1.25,1.8,2.9s.77-.14,1.24-.2,1.25-.09,1.25-.09L43.3,45.2l2.93.58L46,49.19l2.19,1.22,2.77-2,2,2.19-2.2,2.61,1,2.28,3.42,0,.34,3-3.31.82-.49,2.46,2.75,2-1.47,2.61-3.16-1.29-1.84,1.7,1,3.25-2.72,1.25-1.79-2.9s-.77.14-1.24.2-1.25.09-1.25.09L41,72l-2.93-.59Zm4.58-3a6.42,6.42,0,1,0-7.13-5.63A6.41,6.41,0,0,0,42.9,65ZM29.74,41.12"/></svg>